PathFileType	4	(X/Y/Z)	Patient4_TMGait_0pt4_03_right_22.trc.trc
DataRate	CameraRate	NumFrames	NumMarkers	Units	OrigDataRate	OrigDataStartFrame	OrigNumFrames
74.468085106383	74.468085106383	5	33	mm	74.468085106383	124	       141
Frame#	Time	Sacral			L.Shoulder			Chest			R.Shoulder			Neck			R.ASIS			L.ASIS			R.Thigh.Superior			R.Thigh.Lateral			R.Thigh.Inferior			R.Patella			L.Thigh.Superior			L.Thigh.Lateral			L.Thigh.Inferior			L.Patella			L.Shank.Superior			L.Shank.Lateral			L.Shank.Inferior			R.Shank.Superior			R.Shank.Lateral			R.Shank.Inferior			R.Heel			R.Midfoot.Superior			R.Midfoot.Lateral			R.Toe			L.Heel			L.Midfoot.Lateral			L.Midfoot.Superior			L.Toe			L.Elbow			L.Wrist			R.Elbow			R.Wrist			
		X1	Y1	Z1	X2	Y2	Z2	X3	Y3	Z3	X4	Y4	Z4	X5	Y5	Z5	X6	Y6	Z6	X7	Y7	Z7	X8	Y8	Z8	X9	Y9	Z9	X10	Y10	Z10	X11	Y11	Z11	X12	Y12	Z12	X13	Y13	Z13	X14	Y14	Z14	X15	Y15	Z15	X16	Y16	Z16	X17	Y17	Z17	X18	Y18	Z18	X19	Y19	Z19	X20	Y20	Z20	X21	Y21	Z21	X22	Y22	Z22	X23	Y23	Z23	X24	Y24	Z24	X25	Y25	Z25	X26	Y26	Z26	X27	Y27	Z27	X28	Y28	Z28	X29	Y29	Z29	X30	Y30	Z30	X31	Y31	Z31	X32	Y32	Z32	X33	Y33	Z33	

124	29.761714285714	857.621538035580	1011.681086154875	429.501305176563	1077.877281618731	1424.367364195073	247.963976445284	1161.254374666695	1358.454568907518	420.189230239508	1064.981898344777	1440.920143783847	583.656908281556	1046.777132284177	1492.966864082355	407.818878256582	1074.833585324586	942.798083153309	565.954313568845	1083.197357436603	957.032234137363	290.409463029617	1129.458363860467	749.123558942324	545.121935742252	1059.277668476821	636.568967117314	610.490254043790	1144.591991762005	588.302203183450	533.890139406247	1162.931037147263	508.172028637842	546.876265015694	1094.725456507958	733.379427645098	320.433234750111	987.913796601315	632.223417950125	254.444777843036	1056.202359833980	542.610200219865	317.325983979372	1044.544207506431	474.390507254056	324.572886597376	1009.398588674467	407.620080050732	316.926873498443	904.196639437014	305.386150140766	270.339189070486	943.307884610543	187.681769460734	337.590906889417	1144.063080210969	420.853865572140	558.082789825390	1084.751596485218	310.095310855402	620.092779633908	1150.304093394080	221.324280201319	569.456670895981	1050.252522932808	44.331713675740	540.702503877043	1216.443296941572	104.487840885043	581.614875449832	1132.194792640129	39.408299628809	616.763260505381	1337.889972692942	59.567190400454	611.206883420145	804.843792123249	39.596286315400	387.108737152728	872.717126117799	35.601597964336	301.753785502943	958.646434263735	95.613234171612	323.617134017675	1084.511092680690	40.145251020463	284.934727082901	1090.894403366819	1077.695763065547	118.026939935158	1259.792309966156	878.305093956937	156.038572287288	981.304428487736	1107.132055280372	712.146691653737	1062.987625148588	860.130286010601	744.268576631912	
125	29.775142857143	858.742696584734	1010.529610603847	432.253822032744	1076.304660013011	1424.304816228188	251.398350992518	1160.706248483350	1358.427914846878	423.166470777271	1064.591270031685	1440.001468263321	587.244056599018	1045.651831901485	1492.501826559379	411.327291060809	1076.582931556312	941.790927872561	567.890358790209	1084.388972000098	957.169324686701	292.391620082153	1130.976383262129	747.573627008559	546.262584814284	1059.565089364100	635.053937674631	610.462082006482	1144.755658931518	587.081326897229	533.713531265334	1161.639159303268	506.017327942305	545.769635789412	1095.325382416869	732.538870837733	321.361650796793	987.385615854273	631.815580203123	255.965942057233	1055.622831659825	541.653052506867	318.067866462394	1043.794122839329	473.091932481336	325.181810282406	1007.562922546594	406.719932178873	317.680904768622	900.899019377508	305.811420077905	271.201417608264	939.015456329290	187.350396122960	337.842428916879	1141.735064018135	418.101438255020	556.927404652718	1080.626040563327	308.242756951769	619.042508790557	1143.876060711411	218.290440904947	567.587447437766	1039.990795501750	43.446543511378	539.320924047529	1207.005573170701	101.475862217260	579.404196283712	1121.921734843912	38.160624712412	615.426654849174	1328.214711370025	55.051607626098	609.237162017306	799.459414103730	39.841696081061	387.131150044933	867.362812484405	35.701500394163	301.830017757529	953.390737555875	95.608388304226	323.655808993648	1079.159238317233	39.987523794445	284.869465464387	1087.692862473873	1077.706728856508	120.845801084526	1256.573879379910	877.870564384993	156.499135835185	982.969955919506	1105.614041149619	715.480954421530	1069.510346703453	860.021948773195	746.134939765475	
126	29.788571428571	859.857793602266	1009.557820890328	435.079624723913	1074.834379018078	1424.406477358588	254.974724859995	1160.238379732943	1358.504970829600	426.270046959022	1064.318405239324	1439.185926630909	590.975024561488	1044.634327000545	1492.176878447523	414.988091715258	1078.373205826643	941.043251817076	569.932090076041	1085.421424842509	957.280409324069	294.495793863645	1132.639659100857	746.403617409322	547.354288470855	1060.389333980502	633.991083296451	610.684407402756	1145.274053913714	586.295330800694	533.576781621655	1160.761775158429	504.282603264097	544.861476635878	1096.006016126024	731.829645829692	322.352586400980	987.013967954724	631.458410460880	257.592262996259	1055.353191475348	540.790923513493	318.890963657577	1043.457274340473	471.785646531525	325.795734017612	1006.001763450759	405.858755195276	318.466225740833	897.759757938873	306.405513246157	272.157680228300	934.833561610552	187.127260008375	338.098951023395	1140.026237469914	415.860992249597	556.118234575867	1077.507424407529	306.853463411344	618.595064119642	1138.433383430031	215.820372734647	566.166320654334	1030.978135106315	42.765303609894	538.543055485186	1198.644214348650	99.289883826871	577.745343623169	1112.980337460346	37.329949616970	614.612269337576	1319.743689732600	51.731941042865	607.690542623458	794.084113501131	40.302913156051	387.142325189221	862.033371831831	35.889618329125	301.909658165796	948.213916943075	95.640926889736	323.663415373655	1073.830346223363	39.803319391033	284.791749609325	1084.082405484963	1077.874866863907	123.798213958842	1252.718039426045	877.362619879168	156.643787597264	984.912256279601	1104.231935714238	719.080709061957	1076.498162051890	860.223284428888	748.301433123623	
127	29.802000000000	860.948837393498	1008.806888249835	437.965589116788	1073.505862156685	1424.712774088537	258.668075119746	1159.850820943608	1358.705603994033	429.483678850917	1064.155428387699	1438.511226869910	594.814739916634	1043.733898293876	1492.022858284870	418.774122740509	1080.158486278410	940.585547141307	572.096779419062	1086.238864655468	957.361396141899	296.738267977784	1134.388163835939	745.650765826825	548.413713609200	1061.715080927027	633.381110414551	611.196989306800	1146.110989389952	585.924184325106	533.545098243713	1160.274671637564	502.975320068786	544.269584261471	1096.751222050886	731.291638446403	323.455577110517	986.857504416569	631.168368392976	259.308281444460	1055.481435084423	540.055780454329	319.791457239705	1043.629083592540	470.495307953010	326.370137730945	1004.799302758244	405.065051172682	319.241427622293	894.853660923812	307.222258826262	273.180609858491	930.809561419344	187.067131479444	338.331093418257	1138.884663643564	414.148500174648	555.705907348458	1075.326996514629	305.921371688589	618.722219741785	1133.963801534607	213.940531377920	565.209930546986	1023.276096167357	42.303029282106	538.260638539170	1191.419778044499	97.885028436446	576.653366084206	1105.393085425698	36.867679960346	614.249055857292	1312.496896849057	49.524423400593	606.616488310730	788.738564140307	41.090444668830	387.127922330489	856.742024327323	36.216984847335	301.982048280083	943.155644543605	95.730317684420	323.610708364513	1068.528223645124	39.591302835219	284.701594781172	1080.084021658442	1078.249112403351	126.892352945774	1248.191792330977	876.803301722396	156.502906486138	987.121298750792	1103.034588099127	722.920511808264	1083.919067104508	860.800088906317	750.736191925403	
128	29.815428571429	862.006145651269	1008.287699261630	440.926471457071	1072.335913177849	1425.243622196461	262.454352920961	1159.534973046267	1359.039689702546	432.789135012179	1064.088419017160	1438.002458442176	598.728857242935	1042.943942101074	1492.052735536090	422.657005141805	1081.910993292554	940.417560537627	574.407787256542	1086.823056050072	957.432210934346	299.133610927063	1136.172301361297	745.309075220769	549.477166873474	1063.457328886301	633.171012225140	612.011111815338	1147.211380317003	585.893752857804	533.690062859243	1160.120658288776	502.043881164326	544.068454425656	1097.560972372342	730.960092438194	324.722402326972	987.001666909592	630.954718896172	261.091252464801	1056.126644264125	539.475353590821	320.751015819273	1044.431920068494	469.242959124091	326.846615828034	1004.070135867302	404.362079389291	319.954809373349	892.285435698446	308.316893201509	274.232791721276	927.012964296323	187.229421265052	338.501541937574	1138.191526971631	412.913064254098	555.687719423233	1073.893663020758	305.390750328884	619.326031075206	1130.318505274508	212.603614448838	564.678486155279	1016.749890476150	42.048928582225	538.340465494682	1185.219396039047	97.137307664887	576.072737369729	1098.993098040047	36.697293050664	614.234242474152	1306.322405365130	48.232821519208	605.996285093303	783.457228592731	42.335966396404	387.071789247479	851.507646258118	36.751136485786	302.034314544867	938.265192043010	95.901699522460	323.463853737509	1063.253646294367	39.353177513524	284.600547034513	1075.723241310615	1078.864974161235	130.126834255524	1242.972867526769	876.212348652391	156.125121655121	989.571197024842	1102.059318401882	726.975283613078	1091.752207537024	861.824381198356	753.398087432023	
